<svg xmlns="http://www.w3.org/2000/svg" width="90.902" height="47.019" viewBox="0 0 90.902 47.019">
  <g id="motor-sports" transform="translate(0 -123.586)">
    <path id="Path_992" data-name="Path 992" d="M353.68,173.993l-6.269,3.135-3.135-9.4h6.269Z" transform="translate(-283.152 -36.302)" fill="#504b5a"/>
    <ellipse id="Ellipse_48" data-name="Ellipse 48" cx="3.135" cy="3.918" rx="3.135" ry="3.918" transform="translate(70.528 129.855)" fill="#dcdbde"/>
    <path id="Path_993" data-name="Path 993" d="M379.586,150.069H383.5a2.351,2.351,0,0,1,2.351,2.351v6.269a2.351,2.351,0,0,1-2.351,2.351h-.784Z" transform="translate(-312.193 -21.781)" fill="#97c1ff"/>
    <path id="Path_994" data-name="Path 994" d="M174.154,203.034H144.376l4.7,9.4-6.269,4.7-1.567,4.7,12.538,4.7h12.538l3.135-4.7h1.567l3.135-10.971Z" transform="translate(-116.165 -65.342)" fill="#736f7b"/>
    <path id="Path_995" data-name="Path 995" d="M205.386,207.737h18.807a2.351,2.351,0,0,0,2.351-2.351h0a2.351,2.351,0,0,0-2.351-2.351H205.386a2.351,2.351,0,0,0-2.351,2.351h0A2.351,2.351,0,0,0,205.386,207.737Z" transform="translate(-166.987 -65.343)" fill="#504b5a"/>
    <path id="Path_996" data-name="Path 996" d="M264.828,229.517l1.023,3.07a3.134,3.134,0,0,0,2.213,2.05l4.6,1.15,2.351-6.269H264.828Z" transform="translate(-217.809 -87.124)" fill="#625d6b"/>
    <path id="Path_997" data-name="Path 997" d="M311.048,183.023l1.378,6.986a3.134,3.134,0,0,1-.467,2.345l-7.808,11.712a3.134,3.134,0,0,1-2.46,1.392l-1.553.073v-3.282l4.7-14.106Z" transform="translate(-246.85 -48.884)" fill="#73a5eb"/>
    <path id="Path_998" data-name="Path 998" d="M14.106,229.517a14.106,14.106,0,1,0,14.106,14.106A14.106,14.106,0,0,0,14.106,229.517Zm0,23.509a9.4,9.4,0,1,1,9.4-9.4A9.4,9.4,0,0,1,14.106,253.026Z" transform="translate(0 -87.124)" fill="#504b5a"/>
    <circle id="Ellipse_49" data-name="Ellipse 49" cx="6.269" cy="6.269" r="6.269" transform="translate(7.836 150.23)" fill="#a7a5ac"/>
    <g id="Group_474" data-name="Group 474" transform="translate(10.971 142.393)">
      <circle id="Ellipse_50" data-name="Ellipse 50" cx="3.135" cy="3.135" r="3.135" transform="translate(0 10.971)" fill="#504b5a"/>
      <path id="Path_999" data-name="Path 999" d="M367.21,229.517a14.106,14.106,0,1,0,14.105,14.106A14.106,14.106,0,0,0,367.21,229.517Zm0,23.509a9.4,9.4,0,1,1,9.4-9.4A9.4,9.4,0,0,1,367.21,253.026Z" transform="translate(-301.383 -229.517)" fill="#504b5a"/>
    </g>
    <circle id="Ellipse_51" data-name="Ellipse 51" cx="6.269" cy="6.269" r="6.269" transform="translate(70.528 150.23)" fill="#a7a5ac"/>
    <circle id="Ellipse_52" data-name="Ellipse 52" cx="3.135" cy="3.135" r="3.135" transform="translate(73.662 153.365)" fill="#504b5a"/>
    <g id="Group_475" data-name="Group 475" transform="translate(11.7 123.586)">
      <path id="Path_1000" data-name="Path 1000" d="M352.688,158.067a1.571,1.571,0,0,1-1.48-1.05l-10.42-29.772a.783.783,0,0,0-.739-.525h-3.034a1.567,1.567,0,0,1,0-3.135h3.034a3.923,3.923,0,0,1,3.7,2.623l10.421,29.772a1.57,1.57,0,0,1-1.48,2.086Z" transform="translate(-287.591 -123.586)" fill="#625d6b"/>
      <path id="Path_1001" data-name="Path 1001" d="M72.186,259.71a1.567,1.567,0,0,1-.658-2.991l20.375-9.4a1.567,1.567,0,0,1,1.313,2.847l-20.375,9.4A1.563,1.563,0,0,1,72.186,259.71Z" transform="translate(-69.779 -225.229)" fill="#625d6b"/>
      <path id="Path_1002" data-name="Path 1002" d="M98.083,174.943l-11.6,3.866a7.927,7.927,0,0,1-5.015,0l-13.687-4.562a2.755,2.755,0,0,1-1.742-3.484h0a2.754,2.754,0,0,1,2.887-1.87l29.155,2.916v3.135Z" transform="translate(-65.899 -160.838)" fill="#625d6b"/>
    </g>
    <path id="Path_1003" data-name="Path 1003" d="M258.735,166h0a4.4,4.4,0,0,1-4.337,5.12H239.812a3.276,3.276,0,0,1-2.93-4.74l.007-.013a3.275,3.275,0,0,1,2.432-1.773l14.408-2.217A4.4,4.4,0,0,1,258.735,166Z" transform="translate(-194.537 -31.861)" fill="#97c1ff"/>
    <path id="Path_1004" data-name="Path 1004" d="M157.638,278.927h-8.846a14.075,14.075,0,0,1-4.953-.9l-10.409-3.9a1.568,1.568,0,0,1,1.1-2.936l10.409,3.9a10.921,10.921,0,0,0,3.851.7h8.846a2.986,2.986,0,0,0,.943-5.82l-6.289-2.1a1.567,1.567,0,0,1,.992-2.974l6.289,2.1a6.121,6.121,0,0,1-1.935,11.929Z" transform="translate(-108.904 -116.159)" fill="#625d6b"/>
    <circle id="Ellipse_53" data-name="Ellipse 53" cx="3.918" cy="3.918" r="3.918" transform="translate(37.615 150.23)" fill="#504b5a"/>
    <circle id="Ellipse_54" data-name="Ellipse 54" cx="2.351" cy="2.351" r="2.351" transform="translate(37.615 142.394)" fill="#a7a5ac"/>
    <circle id="Ellipse_55" data-name="Ellipse 55" cx="2.743" cy="2.743" r="2.743" transform="translate(57.206 132.206)" fill="#73a5eb"/>
  </g>
</svg>
